<?xml version="1.0" standalone="no"?>
<!DOCTYPE svg PUBLIC "-//W3C//DTD SVG 1.1//EN" "http://www.w3.org/Graphics/SVG/1.1/DTD/svg11.dtd" >
<svg xmlns="http://www.w3.org/2000/svg">
<metadata>
Created by FontForge 20120731 at Tue Jul 12 10:05:31 2016
 By admin
</metadata>
<defs>
<font id="iconfont" horiz-adv-x="1024" >
  <font-face 
    font-family="iconfont"
    font-weight="500"
    font-stretch="normal"
    units-per-em="1024"
    panose-1="2 0 6 3 0 0 0 0 0 0"
    ascent="896"
    descent="-128"
    x-height="792"
    bbox="0 -212 1024 896"
    underline-thickness="50"
    underline-position="-100"
    unicode-range="U+0078-E621"
  />
<missing-glyph horiz-adv-x="374" 
d="M34 0v682h272v-682h-272zM68 34h204v614h-204v-614z" />
    <glyph glyph-name=".notdef" horiz-adv-x="374" 
d="M34 0v682h272v-682h-272zM68 34h204v614h-204v-614z" />
    <glyph glyph-name=".null" horiz-adv-x="0" 
 />
    <glyph glyph-name="nonmarkingreturn" horiz-adv-x="341" 
 />
    <glyph glyph-name="x" unicode="x" horiz-adv-x="1001" 
d="M281 543q-27 -1 -53 -1h-83q-18 0 -36.5 -6t-32.5 -18.5t-23 -32t-9 -45.5v-76h912v41q0 16 -0.5 30t-0.5 18q0 13 -5 29t-17 29.5t-31.5 22.5t-49.5 9h-133v-97h-438v97zM955 310v-52q0 -23 0.5 -52t0.5 -58t-10.5 -47.5t-26 -30t-33 -16t-31.5 -4.5q-14 -1 -29.5 -0.5
t-29.5 0.5h-32l-45 128h-439l-44 -128h-29h-34q-20 0 -45 1q-25 0 -41 9.5t-25.5 23t-13.5 29.5t-4 30v167h911zM163 247q-12 0 -21 -8.5t-9 -21.5t9 -21.5t21 -8.5q13 0 22 8.5t9 21.5t-9 21.5t-22 8.5zM316 123q-8 -26 -14 -48q-5 -19 -10.5 -37t-7.5 -25t-3 -15t1 -14.5
t9.5 -10.5t21.5 -4h37h67h81h80h64h36q23 0 34 12t2 38q-5 13 -9.5 30.5t-9.5 34.5q-5 19 -11 39h-368zM336 498v228q0 11 2.5 23t10 21.5t20.5 15.5t34 6h188q31 0 51.5 -14.5t20.5 -52.5v-227h-327z" />
    <glyph glyph-name="uniE600" unicode="&#xe600;" 
d="M268 469q0 99 71.5 168.5t172.5 69.5t172.5 -69.5t71.5 -168.5t-71.5 -169t-172.5 -70t-172.5 70t-71.5 169zM225 469q0 -84 46 -153t121 -103q-125 -35 -210 -134t-98 -229h43q16 143 126 240.5t259 97.5t259 -97.5t126 -240.5h43q-13 130 -98 229t-210 134
q75 34 121 103t46 153q0 116 -84 198.5t-203 82.5t-203 -82.5t-84 -198.5z" />
    <glyph glyph-name="uniE601" unicode="&#xe601;" 
d="M611 -45l1 41q106 24 174 108.5t68 194.5q1 111 -68.5 197t-173.5 107l-1 41q121 -19 202.5 -116.5t81.5 -228.5t-81.5 -228.5t-202.5 -115.5zM480 -5l-233 163h-61q-21 0 -40.5 19.5t-19.5 40.5v162q0 21 19.5 41t40.5 20h61l233 162q21 0 35.5 -14.5t14.5 -35.5v-507
q0 -21 -14.5 -36t-35.5 -15zM247 355q0 10 -8 17.5t-19 7.5h-7q-11 0 -18.5 -7.5t-7.5 -17.5v-111q0 -11 7.5 -18.5t18.5 -7.5h7q11 0 19 7.5t8 18.5v111zM470 137v344v41l-162 -116v-16v-5v-3v-5v-155v-29l162 -116v60zM733 299.5q0 -66.5 -31.5 -110t-89.5 -52.5v41
q39 8 59.5 41.5t20.5 80t-20.5 80t-59.5 41.5v40q58 -9 89.5 -52t31.5 -109.5z" />
    <glyph glyph-name="uniE602" unicode="&#xe602;" 
d="M382 766h-145q-44 0 -76 -31.5t-32 -75.5v-146q0 -43 32 -74t76 -31h250v251q0 44 -30.5 75.5t-74.5 31.5zM435 461h-198q-22 0 -38.5 15t-16.5 37v146q0 22 16.5 38t38.5 16h145q22 0 37.5 -16t15.5 -38v-198zM790 766h-145q-44 0 -76 -31.5t-32 -75.5v-251h253
q44 0 74.5 30.5t30.5 74.5v146q0 44 -30.5 75.5t-74.5 31.5zM790 461h-201v198q0 22 16.5 38t39.5 16h145q22 0 37 -16t15 -38v-146q0 -22 -15 -37t-37 -15zM129 251v-145q0 -44 32 -75t76 -31h145q44 0 74.5 31t30.5 75v252h-250q-44 0 -76 -31.5t-32 -75.5zM435 106
q0 -22 -15.5 -37t-37.5 -15h-145q-22 0 -38.5 15t-16.5 37v145q0 22 16.5 38.5t38.5 16.5h198v-200zM790 358h-253v-252q0 -44 31.5 -75t76.5 -31h145q44 0 74.5 31t30.5 75v145q0 44 -30.5 75.5t-74.5 31.5z" />
    <glyph glyph-name="uniE603" unicode="&#xe603;" 
d="M734.5 522.5q-7.5 7.5 -18 7.5t-17.5 -7l-187 -187l-187 187q-7 7 -17.5 7t-18.5 -7q-7 -8 -7 -18.5t7 -17.5l187 -187l-187 -187q-7 -7 -7 -17.5t7.5 -18t18 -7.5t17.5 7l187 187l187 -187q7 -7 17.5 -7t18.5 7q7 7 7 18t-7 18l-187 187l187 187q7 7 7 17.5t-7.5 18z
" />
    <glyph glyph-name="uniE604" unicode="&#xe604;" 
d="M784 525l-126 126l63 63q15 15 37.5 15t37.5 -15l51 -51q15 -15 15 -37.5t-15 -37.5zM418 159l-126 126l342 340l126 -126zM191 56l77 205l124 -125zM756 13q14 0 23 -9.5t9 -22.5t-9 -22.5t-23 -9.5h-564q-13 0 -22 9.5t-9 22.5t9 22.5t22 9.5h564z" />
    <glyph glyph-name="uniE605" unicode="&#xe605;" 
d="M829 636h-104v51q0 25 -18.5 42.5t-45.5 17.5h-282q-26 0 -45 -17.5t-19 -42.5v-51h-122q-26 0 -45 -17.5t-19 -42.5v-50h765v50q0 25 -19 42.5t-46 17.5zM667 635h-294v55h294v-55zM667 635zM192 467v-17v-116v-464q0 -7 5 -12.5t13 -5.5h605q7 0 12 5.5t5 12.5v464v116
v17h-640zM364 -34h-58v394h58v-394zM481 -34h-58v394h58v-394zM599 -34h-58v394h58v-394zM716 -34h-58v394h58v-394z" />
    <glyph glyph-name="uniE606" unicode="&#xe606;" 
d="M802 -148h-580q-39 0 -66.5 28.5t-27.5 68.5v702q0 40 27.5 68.5t66.5 28.5h580q39 0 66.5 -28.5t27.5 -68.5v-702q0 -40 -27.5 -68.5t-66.5 -28.5zM222 693q-17 0 -29 -12.5t-12 -29.5v-702q0 -17 12 -29.5t29 -12.5h580q17 0 29 12.5t12 29.5v702q0 17 -12 29.5
t-29 12.5h-580zM751 477h-487v55h487v-55zM751 327h-487v-54h487v54zM751 123h-487v-55h487v55z" />
    <glyph glyph-name="uniE607" unicode="&#xe607;" 
d="M1002 673q-124 -126 -137 -138q-6 -6 -20 -9t-25 -3h-11q-113 13 -130 29q-7 8 -14 41.5t-10 63.5l-3 30q-3 33 13 50l138 137q0 1 1 2t2.5 4t1.5 5.5t-3 4.5t-9 2q-219 1 -293 -73l-14 -15q-63 -63 -68.5 -150t45.5 -155l-418 -379q-14 -14 -25 -35t-16.5 -48.5t4.5 -59
t37 -58.5t58.5 -37t59 -4.5t48.5 16.5t35 25q274 300 298 326q6 8 9.5 16t4 14.5t0 12t-1.5 8.5l-1 3q-49 67 -75 108q-10 16 -6 19t19 -7q116 -75 131 -82h1q68 -52 154.5 -46.5t149.5 68.5l15 15q25 24 40.5 62t21.5 84t8 75.5t2 68.5q0 11 -4 13t-9 -1zM159.5 -38
q-29.5 0 -50 20.5t-20.5 50t20.5 50t50 20.5t50 -20.5t20.5 -50t-20.5 -50t-50 -20.5z" />
    <glyph glyph-name="uniE608" unicode="&#xe608;" 
d="M642 711q15 26 24 38.5t14 16.5t14 1.5t14 -12.5t4 -28t-6 -52q-2 -16 -11.5 -37t-20.5 -41.5t-21 -38t-16 -26.5q-7 -10 -20 -26l-25 -34q-15 -19 -31 -40q10 -15 19 -29q7 -11 14 -22.5t12 -18.5q13 -21 38.5 -42t50.5 -34q13 -6 37 -13.5t47.5 -23t40.5 -43t15 -73.5
q-2 -37 -17 -63t-37.5 -42.5t-50.5 -23t-55 -2.5t-51.5 18t-39.5 40q-15 23 -20.5 46t-5.5 46.5t3.5 47.5t8.5 50q2 14 1.5 23.5t-2.5 16.5t-5 12l-7 10q-3 5 -10 15t-13 19l-18 22l-13 -18q-7 -8 -14 -18.5t-14 -19.5q-14 -19 -15.5 -31t3.5 -29q2 -8 6 -30.5t2.5 -51
t-10 -60.5t-32.5 -60q-20 -25 -46 -36.5t-52.5 -12.5t-52 8.5t-45.5 26t-32.5 41t-13.5 53.5q-1 44 15.5 73t41 47.5t50.5 29t45 16.5q17 7 29.5 13.5t21 12.5t14.5 13t12.5 14.5t15.5 20t18 26.5q10 15 21 33q-7 9 -16 20q-7 11 -18.5 24.5t-24.5 30.5q-14 17 -28 41
t-26.5 47.5t-21.5 43.5t-12.5 29.5t-6.5 24t-4 28.5t1.5 26.5t10.5 17.5q7 4 12.5 3.5t9.5 -4.5t8 -10t10 -14q2 -5 10 -17t19.5 -29t24.5 -38l27 -42q32 -49 71 -110q29 50 55 92l22 37q11 19 20.5 34.5t16.5 28t12 18.5h-1zM326 208q-31 0 -52 -21t-21 -51t21 -52t52 -22
q30 0 51.5 22t21.5 52t-21.5 51t-51.5 21zM698.5 208.5q-30.5 -0.5 -52 -21.5t-21.5 -51q0 -15 6 -28.5t16 -23.5t23.5 -16t28.5 -6q30 0 51 22t21 52t-21 51.5t-51.5 21z" />
    <glyph glyph-name="uniE609" unicode="&#xe609;" 
d="M101 339h365v456h-365v-456zM101 -26h365v273h-365v-273zM557 -26h365v456h-365v-456zM557 795v-274h365v274h-365zM557 795z" />
    <glyph glyph-name="uniE60A" unicode="&#xe60a;" horiz-adv-x="1000" 
d="M315.5 516q-16.5 0 -28 -12t-11.5 -28.5t11.5 -28t28 -11.5t28 11.5t11.5 28t-11.5 28.5t-28 12zM315.5 198q-16.5 0 -28 -11.5t-11.5 -28t11.5 -28.5t28 -12t28 12t11.5 28.5t-11.5 28t-28 11.5zM315.5 357q-16.5 0 -28 -12t-11.5 -28t11.5 -28t28 -12t28 12t11.5 28
t-11.5 28t-28 12zM713 198h-239q-16 0 -27.5 -11.5t-11.5 -28t11.5 -28.5t27.5 -12h239q16 0 27.5 12t11.5 28.5t-11.5 28t-27.5 11.5zM713 516h-239q-16 0 -27.5 -12t-11.5 -28.5t11.5 -28t27.5 -11.5h239q16 0 27.5 11.5t11.5 28t-11.5 28.5t-27.5 12zM832 754h-636
q-33 0 -56 -23.5t-23 -56.5v-714q0 -33 23 -56.5t56 -23.5h636q33 0 56 23.5t23 56.5v714q0 33 -23 56.5t-56 23.5zM832 -1q0 -16 -12 -27.5t-28 -11.5h-556q-16 0 -28 11.5t-12 27.5v636q0 16 12 27.5t28 11.5h556q16 0 28 -11.5t12 -27.5v-636zM713 357h-239
q-16 0 -27.5 -12t-11.5 -28t11.5 -28t27.5 -12h239q16 0 27.5 12t11.5 28t-11.5 28t-27.5 12z" />
    <glyph glyph-name="uniE60B" unicode="&#xe60b;" 
d="M535 376v202q0 9 -6.5 16t-16.5 7t-16.5 -7t-6.5 -16v-202q-25 -7 -41 -28t-16 -48t16 -48t41 -28v-202q0 -9 6.5 -16t16.5 -7t16.5 7t6.5 16v202q25 7 41 28t16 48t-16 48t-41 28zM512 265q-15 0 -25 10t-10 25t10 25t25 10t25 -10t10 -25t-10 -25t-25 -10zM287 111v166
v301q0 9 -6.5 16t-16 7t-16.5 -7t-7 -16v-467q-25 -8 -41 -29t-16 -48q0 -32 23.5 -55.5t56.5 -23.5t56.5 23.5t23.5 55.5q0 27 -16 48t-41 29zM264 -1q-15 0 -25 10.5t-10 25t10 25t25 10.5t25 -10.5t10 -25t-10 -25t-25 -10.5zM760 645q-33 0 -56.5 -23t-23.5 -56
q0 -27 16 -48t41 -29v-467q0 -9 6.5 -16t16 -7t16.5 7t7 16v255v212q25 8 40.5 29t15.5 48q0 33 -23 56t-56 23zM759.5 530q-14.5 0 -25 10.5t-10.5 25t10.5 25t25 10.5t25 -10.5t10.5 -25t-10.5 -25t-25 -10.5z" />
    <glyph glyph-name="uniE60C" unicode="&#xe60c;" 
d="M824 -212h-624q-83 0 -141.5 55t-58.5 133v648q0 78 58.5 133t141.5 55h624q83 0 141.5 -55t58.5 -133v-648q0 -78 -58.5 -133t-141.5 -55zM200 740q-53 0 -90.5 -34t-37.5 -82v-648q0 -48 37.5 -82t90.5 -34h624q53 0 90.5 34t37.5 82v648q0 48 -37.5 82t-90.5 34h-624z
M166 336h72v-72h-72v72zM339 336h498v-72h-498v72zM166 499h671v-71h-671v71zM339 172h498v-71h-498v71zM166 172h72v-71h-72v71z" />
    <glyph glyph-name="uniE60D" unicode="&#xe60d;" horiz-adv-x="1025" 
d="M512 809q-126 0 -235.5 -57t-180.5 -156v86q0 19 -14 33.5t-34 14.5t-34 -14.5t-14 -33.5v-192q0 -20 14 -34t34 -14h208q20 0 34 14t14 34t-14 34t-34 14h-83q57 81 146.5 128.5t192.5 47.5q113 0 209 -55.5t151.5 -151.5t55.5 -208.5t-55.5 -208t-151.5 -151
t-209 -55.5q-144 0 -255.5 87.5t-146.5 223.5l-1 -1q-5 15 -17 24t-28 9q-20 0 -34 -14t-14 -34q0 -4 3 -13h-1q0 -1 0.5 -2t0.5 -2q1 0 1 -1v-2q47 -162 183 -266.5t309 -104.5q104 0 199 40.5t163.5 109t109 163t40.5 198.5t-40.5 198.5t-109 162.5t-163.5 108.5
t-199 40.5zM512 594q-20 0 -34 -14t-14 -34v-287q0 -20 14 -34t34 -14h208q20 0 34 14t14 34t-14 34t-34 14h-160v239q0 20 -14 34t-34 14z" />
    <glyph glyph-name="uniE60E" unicode="&#xe60e;" 
d="M534 60q-10 -9 -23 -9t-23 9l-414 414q-9 9 -9 22.5t10 23.5q9 9 22.5 9t22.5 -9l414 -414q10 -9 9.5 -22.5t-9.5 -23.5zM948 519q9 -10 9 -23.5t-9 -22.5l-414 -414q-9 -9 -22.5 -9t-23.5 9q-9 10 -9 23.5t9 22.5l414 414q10 9 23 9t23 -9z" />
    <glyph glyph-name="uniE60F" unicode="&#xe60f;" 
d="M894 -7l-239 242q73 77 73 205t-86.5 217t-212.5 89t-215 -90t-89 -216q0 -127 88 -213.5t214 -86.5q115 0 188 57l241 -244q7 -6 16 -6t20 11q7 7 8 17.5t-6 17.5zM173 443.5q0 105.5 74 180t178.5 74.5t178.5 -74.5t74 -180t-74 -180t-178.5 -74.5t-178.5 74.5t-74 180
z" />
    <glyph glyph-name="uniE610" unicode="&#xe610;" 
d="M612 379l379 378l-95 95l-379 -379l-378 379l-95 -95l379 -378l-379 -379l95 -95l378 379l379 -379l95 95z" />
    <glyph glyph-name="uniE611" unicode="&#xe611;" 
d="M208 634q-10 9 -23 9t-22.5 -9.5t-9.5 -22.5t9 -23l46 -45q9 -9 22.5 -9t22.5 9t9 22.5t-9 22.5zM816 634l-45 -46q-9 -9 -9 -22.5t9 -22.5t22.5 -9t22.5 9l46 45q9 10 9 23t-9.5 22.5t-22.5 9.5t-23 -9zM127 380h-64q-13 0 -22.5 -9.5t-9.5 -22.5t9.5 -22.5t22.5 -9.5
h64q14 0 23.5 9.5t9.5 22.5t-9.5 22.5t-23.5 9.5zM961 380h-64q-14 0 -23.5 -9.5t-9.5 -22.5t9.5 -22.5t23.5 -9.5h64q13 0 22.5 9.5t9.5 22.5t-9.5 22.5t-22.5 9.5zM480 749v-64q0 -14 9.5 -23.5t22.5 -9.5t22.5 9.5t9.5 23.5v64q0 13 -9.5 22.5t-22.5 9.5t-22.5 -9.5
t-9.5 -22.5zM288 300q0 93 65.5 158.5t158.5 65.5t158.5 -65.5t65.5 -158.5t-65.5 -158.5t-158.5 -65.5t-158.5 65.5t-65.5 158.5zM224 300q0 -119 84.5 -203.5t203.5 -84.5t203.5 84.5t84.5 203.5t-84.5 203.5t-203.5 84.5t-203.5 -84.5t-84.5 -203.5zM448 -149
q0 -13 9.5 -22.5t22.5 -9.5h64q13 0 22.5 9.5t9.5 23t-9.5 22.5t-22.5 9h-64q-13 0 -22.5 -9t-9.5 -23zM384 -52q0 -14 9.5 -23.5t22.5 -9.5h192q13 0 22.5 9.5t9.5 23t-9.5 23t-22.5 9.5h-192q-13 0 -22.5 -9.5t-9.5 -22.5zM384 -52z" />
    <glyph glyph-name="uniE612" unicode="&#xe612;" 
d="M282 663h464q54 0 92 -38t38 -92v-464q0 -53 -38 -91.5t-92 -38.5h-464q-54 0 -92 38.5t-38 91.5v464q0 54 38 92t92 38zM746 642h-464q-45 0 -77 -32t-32 -77v-464q0 -45 32 -77t77 -32h464q45 0 77 32t32 77v464q0 45 -32 77t-77 32zM803 491q-13 13 -31 13.5
t-31 -12.5l-298 -299l-154 158q-12 12 -29.5 11.5t-30 -13.5t-13.5 -31t11 -31l188 -193q12 -12 29.5 -11.5t30.5 13.5q6 6 9 13q4 3 5 4l313 314q13 13 13 31.5t-12 32.5v0zM803 491z" />
    <glyph glyph-name="uniE613" unicode="&#xe613;" 
d="M581 794h-133q-53 0 -91 -38t-38 -91v-17h73v17q0 24 16 40.5t40 16.5h133q23 0 39.5 -16.5t16.5 -40.5v-17h72v17q0 53 -37.5 91t-90.5 38zM840 627h-652q-51 0 -87 -36t-36 -87v-439q0 -52 36 -88t87 -36h652q51 0 87 36t36 88v439q0 51 -36 87t-87 36zM514 77
q-86 0 -146.5 60.5t-60.5 146.5t60.5 146.5t146.5 60.5t146.5 -60.5t60.5 -146.5t-60.5 -146.5t-146.5 -60.5zM633 317h-86v86q0 5 -4 5h-58q-4 0 -4 -5v-86h-86q-4 0 -4 -4v-58q0 -4 4 -4h86v-86q0 -5 4 -5h58q4 0 4 5v86h86q5 0 5 4v58q0 4 -5 4z" />
    <glyph glyph-name="uniE614" unicode="&#xe614;" 
d="M844 482l-44 -30l-105 -70v-79l265 179l-265 178v-78l105 -71zM210 303q1 4 4.5 10.5t18 23.5t33.5 30.5t54 27.5t76 19q48 5 119 5v-116l265 179l-265 178v-107q-6 -1 -17 -2t-43 -8t-60.5 -17t-64 -29.5t-61 -44.5t-42.5 -63.5t-17 -85.5zM627 202h-469v281h62
q49 54 126 89q4 1 12 5h-294v-469h656v183l-93 -63v-26z" />
    <glyph glyph-name="uniE615" unicode="&#xe615;" 
d="M625 763v-66h310v-44h-310v-70h310v-43h-310v-68h310v-43h-310v-69h310v-43h-310v-68h310v-44h-310v-68h310v-43h-310v-89h399v758h-399zM0 787v-806l577 -109v1024zM418 210h-85l-53 238l-68 -238h-58l-83 351h83l33 -219l55 241h87l47 -263l50 263h83z" />
    <glyph glyph-name="uniE616" unicode="&#xe616;" 
d="M512 -128q-95 0 -176 42.5t-128 115.5t-47 160q0 79 36 181t88 191t103.5 166.5t87.5 122.5l36 45q7 -9 20 -25.5t49 -67.5t69.5 -102t74 -121.5t69.5 -134t49 -132.5t20 -123q0 -87 -47 -160t-128 -115.5t-176 -42.5zM400 0q-38 55 -44 147.5t12 185t43.5 178.5
t45.5 139t21 54q-6 -7 -15.5 -19.5t-37 -51.5t-51.5 -78t-51.5 -94t-45 -105t-24 -105t4.5 -100.5t46.5 -85.5t95.5 -65z" />
    <glyph glyph-name="uniE617" unicode="&#xe617;" 
d="M640 762q17 30 27.5 44t16.5 19t16 2t16 -14.5t5 -32.5t-7 -59q-3 -20 -13.5 -44t-23 -47.5t-25 -44t-18.5 -30.5q-8 -11 -22 -30l-29 -39q-18 -22 -36 -46q10 -18 21 -33q9 -14 17 -26q8 -13 13 -21q15 -25 44.5 -49.5t58.5 -38.5q15 -8 43 -16.5t55 -26.5t46.5 -49.5
t16.5 -84.5q-1 -42 -18.5 -72.5t-43.5 -49.5t-58.5 -26t-64 -2.5t-59.5 20.5t-45 45q-17 27 -23.5 53.5t-6.5 53.5t4 55q5 29 9 57q3 17 2.5 28t-2.5 19t-6 14l-8 12q-4 5 -11.5 16.5t-15.5 21.5q-9 12 -20 27l-16 -22q-7 -9 -16 -21q-8 -12 -16 -22q-16 -22 -17.5 -36
t3.5 -34q3 -9 7 -34.5t3 -59t-11.5 -70t-37.5 -69.5q-23 -28 -53 -41.5t-60.5 -14.5t-59.5 9.5t-52.5 30t-38 47.5t-15.5 61q-2 52 17.5 85t47.5 54.5t58.5 33.5t51.5 20q20 7 34 14.5t24.5 14.5t17 15t14.5 16.5t18 23.5l20 30q12 18 25 38q-8 11 -19 24q-8 12 -21 28
q-13 15 -29 35q-15 20 -31.5 47.5t-30.5 54.5t-24.5 50.5t-14.5 34t-8 27.5t-5 33t2 30t12 20q8 5 14.5 4.5t11.5 -5t9 -11.5t11 -17q3 -5 12 -19t22 -33q13 -20 29 -44l31 -49q36 -56 82 -127q33 58 63 107l25 43q13 21 24 39.5t19 32.5q9 14 13 21v0zM276 182
q-36 0 -60.5 -24.5t-24.5 -59.5t24.5 -60t60.5 -25q34 0 59 25t25 60t-25 59.5t-59 24.5zM705 182q-35 0 -60 -24.5t-25 -59.5q0 -17 7 -32.5t18.5 -27t27 -18.5t32.5 -7q35 0 59.5 25t24.5 60t-24.5 59.5t-59.5 24.5zM705 182z" />
    <glyph glyph-name="uniE618" unicode="&#xe618;" 
d="M169 801q-6 -5 -15 -15.5t-29 -48t-30.5 -80t-8.5 -112t26 -145.5q2 -4 12.5 -35.5t15 -47t13.5 -50.5t11.5 -58.5t4.5 -59t-2.5 -63t-14.5 -60t-27 -60.5l14 -8q5 4 12.5 13t22 46t18.5 83t-8 127.5t-47 176.5q-23 62 -26.5 124t7 107.5t24.5 81t26 54.5t13 18zM169 801
zM317 801q-5 -5 -14 -15.5t-29 -48t-30.5 -80t-8.5 -112t26 -145.5q1 -4 11.5 -35.5t15 -47t13.5 -50.5t12 -58.5t5 -59t-2.5 -63t-14.5 -60t-27 -60.5l14 -8q5 4 12.5 13t21.5 46t18.5 83t-8 127.5t-47.5 176.5q-62 171 15 335q15 32 29 50zM317 801zM470 801
q-5 -5 -14.5 -15.5t-29 -48t-30.5 -80t-8.5 -112t26.5 -145.5q1 -4 11.5 -35.5t15 -47t13.5 -50.5t12 -58.5t4.5 -59t-2.5 -63t-14.5 -60t-27.5 -60.5l15 -8q5 4 12.5 13t21.5 46t18.5 83t-8 127.5t-47.5 176.5q-22 61 -25.5 124.5t5.5 106t26 82.5t25 52.5t13 19.5z
M470 801zM623 801q-5 -5 -14.5 -15.5t-29 -48t-30.5 -80t-8.5 -112t26.5 -145.5q1 -4 11.5 -35.5t15 -47t13.5 -50.5t11.5 -58.5t4.5 -59t-2 -63t-14.5 -60t-27.5 -60.5l15 -8q5 4 12.5 13t21.5 46t18.5 83t-8 127.5t-47.5 176.5q-22 62 -25.5 124.5t6 106.5t25 81.5
t25.5 54t13 18.5zM623 801zM776 801q-6 -5 -15 -15.5t-28.5 -48t-30.5 -80t-8.5 -112t26.5 -145.5q1 -4 11.5 -35.5t15 -47t13.5 -50.5t11.5 -58.5t4.5 -59t-2 -63t-14.5 -60t-27.5 -60.5l15 -8q5 4 12 13t21.5 46t19 83t-8 127.5t-47.5 176.5q-13 35 -19.5 71t-7 66.5
t2.5 60t9.5 54t14 45.5t15.5 37t14.5 27.5t10.5 17.5l4 6zM776 801zM925 801q-6 -5 -15 -15.5t-29 -48t-30.5 -80t-8.5 -112t26 -145.5q2 -4 12.5 -35.5t15 -47t13 -50.5t11.5 -58.5t5 -59t-2.5 -63t-14.5 -60t-27 -60.5l14 -8q5 4 12.5 13t22 46t18.5 83t-8 127.5
t-47 176.5q-13 35 -20 71t-7.5 66.5t2.5 60t9.5 54t14 45.5t15.5 37t14.5 27.5t10.5 17.5l5 6zM925 801z" />
    <glyph glyph-name="uniE619" unicode="&#xe619;" 
d="M797 832h-560q-70 0 -119 -49.5t-49 -118.5v-561q0 -69 49 -118.5t119 -49.5h560q70 0 119 49.5t49 118.5v561q0 69 -49 118.5t-119 49.5zM853 103q0 -23 -16.5 -39.5t-39.5 -16.5h-560q-24 0 -40 16.5t-16 39.5v561q0 23 16 39.5t40 16.5h560q23 0 39.5 -16.5
t16.5 -39.5v-561zM853 103zM293 607h112v-112h-112v112zM293 607zM293 439h112v-112h-112v112zM293 439zM293 271h112v-112h-112v112zM293 271zM461 607h112v-112h-112v112zM461 607zM461 439h112v-112h-112v112zM461 439zM461 271h112v-112h-112v112zM461 271zM629 607h112
v-112h-112v112zM629 607zM629 439h112v-112h-112v112zM629 439zM629 271h112v-112h-112v112zM629 271z" />
    <glyph glyph-name="uniE61A" unicode="&#xe61a;" 
d="M626 82q-12 25 -30 43q-13 12 -19 12h-6q-5 0 -13.5 -8t-22 -22.5t-25.5 -24.5h-153q-13 6 -25 31h74q2 0 6.5 0.5t11 5t6.5 12.5v49q0 3 -0.5 7t-6.5 11t-17 7h-92h-25h-49h-43h-30v-209q165 -49 226 -49h15q10 0 38.5 5t55.5 13.5t62 29.5t62 50l13 13q0 -10 -6 5
q-2 6 -7 19zM626 82zM56 199h74v-227h-74v227zM56 199zM950 658v154q0 19 -9 19h-765q-9 0 -9 -19v-474v-2v-88h36h62h24h6h129q55 0 55 -31v-68q4 -5 10 -5t21 11.5t21 16.5t10 8q22 14 45.5 4t41 -24.5t17.5 -16.5q12 -12 36 -61q6 -11 9 -23t3 -19l1 -7l-6 -6
q-56 -55 -117 -86h380v717h-1zM751 439q0 -10 -10 -10h-128v-128q0 -9 -9 -9h-84q-10 0 -10 9v128h-128q-9 0 -9 10v84q0 9 9 9h128v128q0 10 10 10h84q9 0 9 -10v-128h128q10 0 10 -9v-84z" />
    <glyph glyph-name="uniE61B" unicode="&#xe61b;" 
d="M187 199q-61 0 -104 -43t-43 -104t43 -104t104 -43t104 43t43 104t-43 104t-104 43zM266 90l-99 -100q-4 -3 -8 1l-7 7l-44 44q-4 4 0 8l12 12q4 4 8 0l35 -35l83 83q3 4 8 0l12 -13q4 -4 0 -7zM266 90zM916 837h-738q-18 0 -30.5 -12.5t-12.5 -30.5v-560q26 8 53 8
q78 0 133.5 -55t55.5 -133q0 -35 -13 -68h552q18 0 31 13t13 31v764q0 18 -13 30.5t-31 12.5zM725 385q0 -9 -9 -9h-126v-126q0 -9 -9 -9h-81q-9 0 -9 9v126h-127q-8 0 -8 9v82q0 8 8 8h127v127q0 8 9 8h81q9 0 9 -8v-127h126q9 0 9 -8v-82z" />
    <glyph glyph-name="uniE61C" unicode="&#xe61c;" 
d="M314 -212q-9 0 -16 6q-8 6 -9 16.5t6 18.5l379 455l-381 464q-7 8 -6 18.5t9 17t18.5 5.5t17.5 -9l393 -481q13 -16 0 -32l-392 -470q-7 -9 -19 -9z" />
    <glyph glyph-name="uniE61D" unicode="&#xe61d;" 
d="M534 -102v0v104q131 0 223 92.5t92 222.5t-92 222t-222.5 92t-222.5 -92t-92 -222q0 -86 47 -163l110 110v-262h-262l75 76q-75 107 -75 239q0 114 56 210.5t153 152.5t210.5 56t210 -56t153 -152.5t56.5 -210.5t-56.5 -210.5t-153 -152.5t-210.5 -56zM433 341
q0 -22 -15.5 -38t-38 -16t-38.5 16t-16 38.5t16 38t38.5 15.5t38 -15.5t15.5 -38.5zM541 395q-23 0 -39 -15.5t-16 -38t16 -38.5t38.5 -16t38.5 16t16 38.5t-16 38t-38 15.5zM702 395q-22 0 -38 -15.5t-16 -38t16 -38.5t38.5 -16t38 16t15.5 38.5t-15.5 38t-38.5 15.5z
M702 395zM534 -93z" />
    <glyph glyph-name="uniE61E" unicode="&#xe61e;" 
d="M888 501q-5 8 -15.5 17t-26.5 20q-17 10 -27 15t-16 7q-7 3 -11 2q-6 25 -17 50q-10 21 -26 43.5t-39 39.5q-23 16 -48 26.5t-51.5 15.5t-51.5 6.5t-47 1.5q-38 0 -75 -5q-32 -5 -67 -15.5t-61 -32.5q-22 -18 -36.5 -40.5t-23.5 -42.5q-11 -23 -17 -46q-8 -2 -18 -6
q-8 -4 -19.5 -9.5t-24.5 -14.5q-13 -10 -21.5 -18.5t-13.5 -15.5q-5 -8 -8 -15h770q-3 8 -9 17zM653 584q-28 2 -64 4q-37 3 -77 3q-38 0 -73.5 -2.5t-64.5 -4.5q-33 -3 -62 -6q4 13 11 28q6 12 15.5 27t25.5 29q14 12 39 19t49 11q28 4 60 6q35 -1 73 -7t70 -26
q17 -11 27.5 -25.5t17.5 -28.5q8 -16 12 -33q-27 3 -59 6zM880 436h-365h-371q-17 0 -25.5 -10t-8.5 -26q0 -17 11 -26t27 -9h28v-139v-53q0 -26 0.5 -47.5t0.5 -37.5v-19q0 -41 15.5 -70t47.5 -51q9 -6 18 -10t16 -6q8 -3 16 -3v-16q0 -7 0.5 -13.5t0.5 -11.5
q0 -14 10.5 -22t24.5 -8q12 0 24 7t12 21v39h305v-39q0 -13 11 -22t25 -9q14 1 25 9t11 22v42q12 2 24 6q11 4 24 11t27 20q26 26 33 48.5t7 45.5v306h30q13 0 21.5 10t8.5 25q0 36 -34 36zM512 27q-24 0 -40.5 16.5t-16.5 40t16.5 40.5t40.5 17t40.5 -17t16.5 -40.5
t-16.5 -40t-40.5 -16.5z" />
    <glyph glyph-name="uniE61F" unicode="&#xe61f;" 
d="M876 31l-89 89q32 49 32 107q0 80 -56.5 136.5t-137 56.5t-137 -56.5t-56.5 -136.5t56.5 -137t136.5 -57q58 0 107 32l89 -89q9 -8 21 -8t20 8l14 14q8 9 8 20.5t-8 20.5zM730 177q-18 -37 -55 -55q-24 -11 -50 -11q-48 0 -82 34t-34 82t34 82t82 34t82.5 -34t34.5 -82
q0 -26 -12 -50zM373 191h-95q-12 0 -20.5 8.5t-8.5 20.5t8.5 21t20.5 9h93q4 41 20 78h-113q-12 0 -20.5 9t-8.5 21t8.5 20.5t20.5 8.5h149q45 55 111 79h-260q-12 0 -20.5 8.5t-8.5 21t8.5 21t20.5 8.5h454q12 0 21 -8.5t9 -21t-9 -21t-21 -8.5h-22q60 -22 103 -69.5
t58 -109.5v424q0 37 -26.5 63t-63.5 26h-552q-37 0 -63 -26t-26 -63v-638q0 -37 26 -63.5t63 -26.5h324q-71 21 -120.5 77.5t-59.5 130.5zM278 663h454q12 0 21 -9t9 -21t-9 -20.5t-21 -8.5h-454q-12 0 -20.5 8.5t-8.5 20.5t8.5 21t20.5 9z" />
    <glyph glyph-name="uniE620" unicode="&#xe620;" 
d="M945 583h-148v162h-570v-162h-148q-20 0 -33.5 -13.5t-13.5 -33.5v-397h195v-67l217 -217h353v282h195v399q0 20 -13.5 33.5t-33.5 13.5zM282 690h460v-107h-460v107zM851 214h-54v108h-55v-412h-226q-23 0 -35.5 20t-14.5 48.5t-0.5 57t4.5 48.5l4 20q-4 -1 -11 -2.5
t-26.5 -4.5t-37.5 -4.5t-40 -0.5t-38 6t-27 17t-12 29v178h-55v-106h-54v185h678v-187zM890.5 468q-15.5 0 -26.5 11t-11 26.5t11 26.5t26.5 11t26.5 -11t11 -26.5t-11 -26.5t-26.5 -11zM677 315h-317v-55h317v55zM360 152h317v55h-317v-55z" />
    <glyph glyph-name="uniE621" unicode="&#xe621;" 
d="M636 832h-456q-25 0 -44.5 -21.5t-19.5 -43.5v-792q0 -38 38 -38h240h196h140h94h34q38 0 38 38v601zM857 -25h-703v818h486v-217h218zM538 704h-294v-38h294v38zM244 65h524v38h-524v-38zM423 614h-179v-38h179v38zM346 512h-102v-38h102v38zM372 231h-128v-38h128v38z
M346 359h-102v-39h102v39zM384 384q0 -66 43.5 -109.5t110.5 -43.5q64 0 98 25l98 -95l32 31l-97 96q23 30 23 96q0 67 -43.5 110.5t-110.5 43.5q-33 0 -59 -8.5t-42 -22t-27 -30t-16 -33t-7.5 -30t-2.5 -22.5v-8zM653 384q0 -4 -1.5 -12t-8.5 -28t-18.5 -35t-34 -27.5
t-52.5 -12.5q-46 0 -80.5 35t-34.5 80.5t34.5 80t80.5 34.5t80.5 -34.5t34.5 -80.5z" />
  </font>
</defs>
</svg>
